<svg id="visual" viewBox="0 0 960 540" width="960" height="540" xmlns="http://www.w3.org/2000/svg" xmlns:xlink="http://www.w3.org/1999/xlink" version="1.1"><rect x="0" y="0" width="960" height="540" fill="#ebe2d4"></rect><path d="M0 466L9.3 460.2C18.7 454.3 37.3 442.7 56.2 443.2C75 443.7 94 456.3 112.8 455.3C131.7 454.3 150.3 439.7 169.2 433.5C188 427.3 207 429.7 225.8 430.7C244.7 431.7 263.3 431.3 282.2 431.7C301 432 320 433 338.8 428.5C357.7 424 376.3 414 395.2 420.3C414 426.7 433 449.3 451.8 457C470.7 464.7 489.3 457.3 508.2 446.5C527 435.7 546 421.3 564.8 414.7C583.7 408 602.3 409 621.2 414.3C640 419.7 659 429.3 677.8 428.5C696.7 427.7 715.3 416.3 734.2 409.5C753 402.7 772 400.3 790.8 410.7C809.7 421 828.3 444 847.2 448.5C866 453 885 439 903.8 427.5C922.7 416 941.3 407 950.7 402.5L960 398L960 541L950.7 541C941.3 541 922.7 541 903.8 541C885 541 866 541 847.2 541C828.3 541 809.7 541 790.8 541C772 541 753 541 734.2 541C715.3 541 696.7 541 677.8 541C659 541 640 541 621.2 541C602.3 541 583.7 541 564.8 541C546 541 527 541 508.2 541C489.3 541 470.7 541 451.8 541C433 541 414 541 395.2 541C376.3 541 357.7 541 338.8 541C320 541 301 541 282.2 541C263.3 541 244.7 541 225.8 541C207 541 188 541 169.2 541C150.3 541 131.7 541 112.8 541C94 541 75 541 56.2 541C37.3 541 18.7 541 9.3 541L0 541Z" fill="#b87b6d" stroke-linecap="round" stroke-linejoin="miter"></path></svg>